Coordinates
version=1
nRows=27
nColumns=38
inDegrees=no

Units are S.I. units (second, meters, Newtons, ...)
If the header above contains a line with 'inDegrees', this indicates whether rotational values are in degrees (yes) or radians (no).

endheader
time	pelvis_tilt	pelvis_list	pelvis_rotation	pelvis_tx	pelvis_ty	pelvis_tz	hip_flexion_r	hip_adduction_r	hip_rotation_r	knee_angle_r	ankle_angle_r	subtalar_angle_r	mtp_angle_r	hip_flexion_l	hip_adduction_l	hip_rotation_l	knee_angle_l	ankle_angle_l	subtalar_angle_l	mtp_angle_l	lumbar_extension	lumbar_bending	lumbar_rotation	arm_flex_r	arm_add_r	arm_rot_r	elbow_flex_r	pro_sup_r	wrist_flex_r	wrist_dev_r	arm_flex_l	arm_add_l	arm_rot_l	elbow_flex_l	pro_sup_l	wrist_flex_l	wrist_dev_l
5.32	2.67999	1.5321	2.17122	0.864377	0.724591	0.951637	0.19362	-0.227953	-0.124218	1.11653	-0.48136	0	0	-0.0862917	0.150218	-0.0454692	0.0336557	0.0857767	0	0	-0.0238699	-0.0454988	0.148719	0.240137	0.0561722	0.456589	1.03161	1.5708	0	0	-0.188987	-0.172108	-0.032493	0.47432	1.5708	0	0
5.33	2.70126	1.53389	2.15438	0.865128	0.723392	0.951752	0.195677	-0.226769	-0.125303	1.12126	-0.477626	0	0	-0.0905606	0.148529	-0.0409122	0.0310715	0.0856523	0	0	-0.0261951	-0.0432624	0.147129	0.247013	0.0570376	0.450799	1.02562	1.5708	0	0	-0.188302	-0.171213	-0.0298344	0.475038	1.5708	0	0
5.34	2.72256	1.53551	2.13789	0.865894	0.722209	0.951852	0.197828	-0.225911	-0.126786	1.12606	-0.473687	0	0	-0.0946885	0.146911	-0.036122	0.0285145	0.0854847	0	0	-0.0283545	-0.0411262	0.145413	0.253644	0.0576235	0.444823	1.02048	1.5708	0	0	-0.18828	-0.170728	-0.0275123	0.476825	1.5708	0	0
5.35	2.7483	1.53596	2.11662	0.866581	0.72114	0.951843	0.202064	-0.225393	-0.126928	1.13197	-0.468341	0	0	-0.0971708	0.145755	-0.0315216	0.0266651	0.0852201	0	0	-0.0294224	-0.0396491	0.144259	0.260264	0.0580687	0.438803	1.01566	1.5708	0	0	-0.188402	-0.170336	-0.0251691	0.478656	1.5708	0	0
5.36	2.76434	1.5365	2.10501	0.867248	0.720161	0.951847	0.206711	-0.22486	-0.126275	1.13844	-0.461722	0	0	-0.0995738	0.144875	-0.0275136	0.0252374	0.0849999	0	0	-0.0308344	-0.0385083	0.143391	0.26731	0.0584152	0.432507	1.01059	1.5708	0	0	-0.188225	-0.169907	-0.0221577	0.480009	1.5708	0	0
5.37	2.77607	1.53709	2.09772	0.867912	0.719284	0.951869	0.211708	-0.224214	-0.124935	1.14529	-0.452933	0	0	-0.101834	0.144091	-0.0237708	0.0242087	0.0853578	0	0	-0.0324884	-0.0374625	0.14263	0.274991	0.0590554	0.424929	1.00414	1.5708	0	0	-0.187871	-0.169483	-0.0196257	0.480787	1.5708	0	0
5.38	2.79031	1.53778	2.08838	0.868584	0.718422	0.951906	0.216426	-0.223623	-0.124082	1.15195	-0.44025	0	0	-0.104091	0.143067	-0.0198684	0.0233904	0.0863313	0	0	-0.0341781	-0.0361927	0.141476	0.283034	0.0598412	0.417159	0.996542	1.5708	0	0	-0.187479	-0.168807	-0.0181034	0.480883	1.5708	0	0
5.39	2.80451	1.53853	2.07906	0.869209	0.717607	0.951948	0.221428	-0.222818	-0.122749	1.15887	-0.423006	0	0	-0.106285	0.141974	-0.0160743	0.0226553	0.0869796	0	0	-0.0360971	-0.0348248	0.14052	0.291677	0.0602125	0.410594	0.988442	1.5708	0	0	-0.186801	-0.168012	-0.0169956	0.480204	1.5708	0	0
5.4	2.82186	1.53927	2.06652	0.869768	0.716862	0.951983	0.227031	-0.221563	-0.120737	1.16623	-0.400952	0	0	-0.108154	0.140768	-0.0123269	0.0221762	0.0874885	0	0	-0.0380772	-0.0334145	0.139812	0.300945	0.0603148	0.404692	0.97961	1.5708	0	0	-0.185905	-0.167104	-0.0157846	0.479098	1.5708	0	0
5.41	2.84051	1.53996	2.05307	0.870357	0.716139	0.952033	0.232823	-0.220123	-0.118599	1.17364	-0.374974	0	0	-0.109911	0.139518	-0.00828244	0.0217702	0.0878947	0	0	-0.0399425	-0.0320548	0.139033	0.310152	0.0607429	0.397298	0.970119	1.5708	0	0	-0.1851	-0.166333	-0.0141689	0.478007	1.5708	0	0
5.42	2.83821	1.54048	2.06038	0.871029	0.71549	0.952112	0.239053	-0.219371	-0.115593	1.18139	-0.346137	0	0	-0.111597	0.139155	-0.00445321	0.0216678	0.0880205	0	0	-0.0420777	-0.0312051	0.138737	0.319465	0.0611268	0.38856	0.960338	1.5708	0	0	-0.183998	-0.165287	-0.0125821	0.476563	1.5708	0	0
5.43	2.80808	1.54025	2.09544	0.871792	0.714936	0.952165	0.246358	-0.219979	-0.111675	1.18981	-0.315218	0	0	-0.112707	0.140188	4.03604e-05	0.0219612	0.087732	0	0	-0.0440995	-0.0312981	0.138189	0.329173	0.0616457	0.380043	0.949981	1.5708	0	0	-0.183371	-0.164083	-0.0113974	0.476075	1.5708	0	0
5.44	2.62343	1.53766	2.28693	0.872579	0.713602	0.951591	0.253727	-0.251908	-0.143965	1.20575	-0.283693	0	0	-0.117713	0.14679	0.00645826	0.0192579	0.0873518	0	0	-0.0453117	-0.038086	0.134732	0.338092	0.0643455	0.372689	0.940016	1.5708	0	0	-0.186333	-0.165939	-0.0117574	0.478728	1.5708	0	0
5.45	2.64731	1.5388	2.26745	0.872969	0.713115	0.951713	0.262267	-0.247862	-0.137383	1.21415	-0.248113	0	0	-0.118963	0.144957	0.0105845	0.0192741	0.0875325	0	0	-0.0478189	-0.0359333	0.135291	0.349076	0.0640056	0.365144	0.928385	1.5708	0	0	-0.183634	-0.163517	-0.0128026	0.473472	1.5708	0	0
5.46	2.67758	1.54014	2.2415	0.873316	0.712673	0.951856	0.271437	-0.242855	-0.129704	1.2228	-0.213621	0	0	-0.120174	0.142843	0.0146007	0.0193591	0.087779	0	0	-0.0505256	-0.0334287	0.136039	0.360114	0.0636499	0.357201	0.91667	1.5708	0	0	-0.180839	-0.160937	-0.013935	0.467859	1.5708	0	0
5.47	2.71008	1.54147	2.21341	0.873656	0.712269	0.952028	0.281478	-0.237366	-0.121237	1.23171	-0.18212	0	0	-0.121287	0.140692	0.0186633	0.0195826	0.0880144	0	0	-0.0532747	-0.0308774	0.136684	0.371367	0.0632553	0.349148	0.904638	1.5708	0	0	-0.178402	-0.159122	-0.0136027	0.46309	1.5708	0	0
5.48	2.7345	1.54303	2.19367	0.874038	0.711904	0.952253	0.291714	-0.231878	-0.112557	1.24077	-0.155841	0	0	-0.122738	0.138647	0.0228511	0.0198787	0.0883283	0	0	-0.0566579	-0.0284256	0.136904	0.382373	0.0626199	0.340481	0.893903	1.5708	0	0	-0.176604	-0.157444	-0.0124289	0.460386	1.5708	0	0
5.49	3.02065	1.52997	1.85616	0.865771	0.710583	0.951244	0.34624	-0.174791	0.0027347	1.2596	-0.125254	0	0	-0.105295	0.133995	-0.032641	0.0161999	0.091158	0	0	-0.0400527	-0.0343913	0.193272	0.391245	0.0754621	0.320535	0.872986	1.5708	0	0	-0.178395	-0.164457	-0.0105717	0.463631	1.5708	0	0
5.5	3.04867	1.5309	1.832	0.866064	0.7102	0.951429	0.358114	-0.168424	0.012929	1.26946	-0.107798	0	0	-0.106028	0.13227	-0.0306421	0.0174372	0.0925392	0	0	-0.0432159	-0.032249	0.19435	0.402462	0.0744728	0.310752	0.862313	1.5708	0	0	-0.176696	-0.163028	-0.00791915	0.460921	1.5708	0	0
5.51	3.07823	1.53182	1.80787	0.86643	0.709841	0.951627	0.369997	-0.162399	0.0217977	1.27943	-0.0915816	0	0	-0.106715	0.130274	-0.0263195	0.0188404	0.0940983	0	0	-0.046269	-0.0301579	0.194072	0.414104	0.0737599	0.301493	0.849679	1.5708	0	0	-0.175817	-0.163953	0.00364984	0.461225	1.5708	0	0
5.52	3.10963	1.53278	1.78325	0.866932	0.709507	0.951843	0.381672	-0.156942	0.029222	1.28935	-0.0747248	0	0	-0.107636	0.12815	-0.0201763	0.0198988	0.0949653	0	0	-0.0495493	-0.0278511	0.19068	0.42721	0.0735126	0.295382	0.834762	1.5708	0	0	-0.173646	-0.160632	-0.00412971	0.454287	1.5708	0	0
5.53	2.95906	1.53504	1.94439	0.867911	0.708316	0.951637	0.391943	-0.18384	0.00133658	1.30432	-0.0567523	0	0	-0.11463	0.132848	-0.0115253	0.0181125	0.0951654	0	0	-0.0543533	-0.0324808	0.183505	0.43844	0.0739662	0.289564	0.82366	1.5708	0	0	-0.176105	-0.161548	-0.00350429	0.456962	1.5708	0	0
5.54	-3.09355	1.53598	1.71648	0.867789	0.708963	0.95236	0.405411	-0.144182	0.0449327	1.3102	-0.0393265	0	0	-0.11007	0.123255	-0.0110922	0.0228533	0.0970658	0	0	-0.0583543	-0.0227276	0.187181	0.451786	0.0695778	0.282952	0.812529	1.5708	0	0	-0.16947	-0.157627	-1.23479e-05	0.448797	1.5708	0	0
5.55	-3.05087	1.53696	1.68035	0.868162	0.708699	0.952579	0.418938	-0.137626	0.052907	1.32163	-0.0201299	0	0	-0.110497	0.120891	-0.00717871	0.0246502	0.0980897	0	0	-0.0620781	-0.0202685	0.18616	0.464056	0.0668334	0.279085	0.80145	1.5708	0	0	-0.166077	-0.157159	0.00499693	0.442694	1.5708	0	0
5.56	-3.01387	1.5379	1.65076	0.868541	0.708419	0.952805	0.43261	-0.131876	0.0596477	1.33316	8.71415e-05	0	0	-0.111197	0.118621	-0.00226831	0.0262196	0.0994449	0	0	-0.0658829	-0.0182715	0.184474	0.476068	0.0653533	0.266585	0.789951	1.5708	0	0	-0.163096	-0.156957	0.0103711	0.438292	1.5708	0	0
5.57	-2.97383	1.53891	1.61785	0.86889	0.708104	0.953033	0.446715	-0.125992	0.0664625	1.34473	0.0176837	0	0	-0.112306	0.11629	0.00221757	0.0271751	0.100478	0	0	-0.0698069	-0.0162289	0.182911	0.488048	0.063325	0.256433	0.779244	1.5708	0	0	-0.160496	-0.156264	0.0139522	0.435072	1.5708	0	0
5.58	-2.93551	1.53958	1.58664	0.869223	0.707798	0.95324	0.461843	-0.120518	0.0727691	1.35659	0.0337578	0	0	-0.113477	0.114055	0.00708218	0.0273826	0.100918	0	0	-0.0733278	-0.0143383	0.181966	0.499963	0.06067	0.245941	0.768659	1.5708	0	0	-0.157567	-0.155566	0.0178534	0.43143	1.5708	0	0
